<svg width="142" height="141" viewBox="0 0 142 141" fill="none" xmlns="http://www.w3.org/2000/svg">
<g filter="url(#filter0_d_201_15)">
<path d="M94.9697 34.4226C98.7578 33.3429 102.438 36.4312 102.033 40.3493C101.719 43.3817 103.903 46.1025 106.931 46.4524C110.844 46.9044 113.063 51.1662 111.188 54.6308C109.738 57.3123 110.714 60.6616 113.378 62.1438C116.82 64.0589 117.239 68.8452 114.182 71.3289C111.816 73.2512 111.436 76.7192 113.33 79.108C115.777 82.1946 114.332 86.7768 110.557 87.9015C107.636 88.772 105.958 91.8306 106.793 94.7624C107.873 98.5506 104.785 102.231 100.867 101.826C97.8343 101.512 95.1135 103.695 94.7636 106.724C94.3115 110.637 90.0498 112.855 86.5852 110.981C83.9037 109.531 80.5544 110.507 79.0722 113.171C77.1571 116.613 72.3708 117.032 69.887 113.975C67.9647 111.608 64.4968 111.229 62.1079 113.123C59.0214 115.57 54.4391 114.125 53.3144 110.35C52.444 107.428 49.3854 105.75 46.4535 106.586C42.6654 107.666 38.9849 104.577 39.3904 100.659C39.7043 97.627 37.5206 94.9063 34.4922 94.5563C30.5792 94.1043 28.3607 89.8425 30.2348 86.3779C31.6852 83.6965 30.709 80.3471 28.0449 78.8649C24.6028 76.9498 24.1841 72.1635 27.2413 69.6798C29.6075 67.7575 29.9873 64.2895 28.0933 61.9007C25.6461 58.8141 27.0908 54.2319 30.8658 53.1072C33.7875 52.2367 35.4656 49.1781 34.6299 46.2463C33.5501 42.4581 36.6385 38.7776 40.5565 39.1832C43.5889 39.497 46.3097 37.3134 46.6596 34.2849C47.1117 30.372 51.3734 28.1534 54.838 30.0275C57.5195 31.4779 60.8688 30.5017 62.351 27.8377C64.2661 24.3956 69.0524 23.9768 71.5362 27.0341C73.4585 29.4003 76.9264 29.7801 79.3153 27.886C82.4018 25.4388 86.9841 26.8836 88.1088 30.6586C88.9792 33.5803 92.0379 35.2583 94.9697 34.4226Z" fill="url(#paint0_linear_201_15)"/>
</g>
<path d="M60.1462 72.1222L82.3982 67.2482L82.928 69.6669L60.676 74.5409L60.1462 72.1222ZM67.8529 59.7319L70.1641 59.2257L75.1675 82.069L72.8563 82.5752L67.8529 59.7319Z" fill="white"/>
<defs>
<filter id="filter0_d_201_15" x="8.22563" y="18.9917" width="119.984" height="119.984" filterUnits="userSpaceOnUse" color-interpolation-filters="sRGB">
<feFlood flood-opacity="0" result="BackgroundImageFix"/>
<feColorMatrix in="SourceAlpha" type="matrix" values="0 0 0 0 0 0 0 0 0 0 0 0 0 0 0 0 0 0 127 0" result="hardAlpha"/>
<feOffset dx="-2.49393" dy="8.47935"/>
<feGaussianBlur stdDeviation="7.23238"/>
<feComposite in2="hardAlpha" operator="out"/>
<feColorMatrix type="matrix" values="0 0 0 0 0.0775104 0 0 0 0 0.241623 0 0 0 0 0.157958 0 0 0 0.46 0"/>
<feBlend mode="normal" in2="BackgroundImageFix" result="effect1_dropShadow_201_15"/>
<feBlend mode="normal" in="SourceGraphic" in2="effect1_dropShadow_201_15" result="shape"/>
</filter>
<linearGradient id="paint0_linear_201_15" x1="99.1357" y1="114.485" x2="38.4442" y2="68.4157" gradientUnits="userSpaceOnUse">
<stop stop-color="#237249"/>
<stop offset="1" stop-color="#35C66B"/>
</linearGradient>
</defs>
</svg>
